<?xml version="1.0" encoding="utf-8"?>
<!-- Generator: Adobe Illustrator 24.3.0, SVG Export Plug-In . SVG Version: 6.00 Build 0)  -->
<svg version="1.1" id="Слой_1" xmlns="http://www.w3.org/2000/svg" xmlns:xlink="http://www.w3.org/1999/xlink" x="0px" y="0px"
	 viewBox="0 0 600 600" style="enable-background:new 0 0 600 600;" xml:space="preserve">
<style type="text/css">
	.st0{fill:#00913F;}
	.st1{fill:#FFFFFF;}
</style>
<circle class="st0" cx="300" cy="299.6" r="282.3"/>
<g>
	<path class="st1" d="M165,360.6l42.3-3.7c2,17,6.7,30.9,14,41.8c7.3,10.9,18.7,19.7,34.1,26.4c15.4,6.7,32.8,10.1,52.1,10.1
		c17.1,0,32.2-2.5,45.3-7.6c13.1-5.1,22.9-12.1,29.3-20.9c6.4-8.9,9.6-18.5,9.6-29c0-10.6-3.1-19.9-9.3-27.9
		c-6.2-7.9-16.3-14.6-30.5-20c-9.1-3.5-29.2-9.1-60.4-16.5c-31.2-7.5-53-14.5-65.5-21.2c-16.2-8.5-28.3-19-36.2-31.6
		c-7.9-12.6-11.9-26.6-11.9-42.2c0-17.1,4.9-33.1,14.6-48c9.7-14.9,23.9-26.2,42.6-33.9c18.7-7.7,39.4-11.6,62.2-11.6
		c25.1,0,47.3,4,66.5,12.1c19.2,8.1,34,20,44.3,35.7c10.3,15.7,15.9,33.5,16.7,53.4l-43,3.2c-2.3-21.4-10.1-37.6-23.5-48.6
		c-13.3-11-33-16.4-59.1-16.4c-27.1,0-46.9,5-59.3,14.9c-12.4,9.9-18.6,21.9-18.6,36c0,12.2,4.4,22.2,13.2,30.1
		c8.6,7.9,31.2,15.9,67.7,24.2c36.5,8.3,61.5,15.5,75.1,21.6c19.7,9.1,34.3,20.6,43.7,34.6c9.4,14,14.1,30,14.1,48.2
		c0,18-5.2,35.1-15.5,51c-10.3,16-25.2,28.4-44.5,37.2c-19.4,8.9-41.1,13.3-65.4,13.3c-30.7,0-56.4-4.5-77.2-13.4
		c-20.7-8.9-37-22.4-48.8-40.4C171.8,403.6,165.6,383.3,165,360.6z"/>
</g>
<image style="display:none;overflow:visible;opacity:0.45;" width="992" height="794" xlink:href="1AC7348C.jpg"  transform="matrix(0.7557 0 0 0.7557 -74.8111 0)">
</image>
<g>
	<rect x="309.3" y="88.1" class="st1" width="20.8" height="423.8"/>
	<rect x="269.9" y="88.1" class="st1" width="20.8" height="423.8"/>
</g>
</svg>
